<?xml version="1.0" standalone="no"?><!DOCTYPE svg PUBLIC "-//W3C//DTD SVG 1.1//EN" "http://www.w3.org/Graphics/SVG/1.1/DTD/svg11.dtd"><svg t="1746541777790" class="icon" viewBox="0 0 1024 1024" version="1.1" xmlns="http://www.w3.org/2000/svg" p-id="22754" xmlns:xlink="http://www.w3.org/1999/xlink" width="200" height="200"><path d="M510.4128 938.2912c-240.896 0-436.8384-195.9936-436.8384-436.8384s195.9936-436.8384 436.8384-436.8384 436.8384 195.9936 436.8384 436.8384h-71.68c0-201.3696-163.84-365.1584-365.1584-365.1584s-365.1584 163.84-365.1584 365.1584 163.84 365.1584 365.1584 365.1584c59.5456 0 118.6304-14.6432 170.9056-42.3424l33.5872 63.3344c-62.5664 33.1776-133.2736 50.688-204.4928 50.688z" fill="#4C4C4C" p-id="22755"></path><path d="M510.4128 526.4896c-83.6608 0-151.7056-68.0448-151.7056-151.7056s68.0448-151.7056 151.7056-151.7056 151.7056 68.0448 151.7056 151.7056-68.096 151.7056-151.7056 151.7056z m0-231.7312c-44.1344 0-80.0256 35.8912-80.0256 80.0256s35.8912 80.0256 80.0256 80.0256 80.0256-35.8912 80.0256-80.0256-35.9424-80.0256-80.0256-80.0256z" fill="#F7C425" p-id="22756"></path><path d="M551.7824 716.5952h-296.448l6.1952-41.1648c18.3808-121.9584 125.3888-213.9648 248.8832-213.9648 51.7632 0 101.5296 15.616 143.8208 45.1072l-41.0112 58.7776c-30.208-21.0944-65.792-32.2048-102.8096-32.2048-73.7792 0-139.3152 45.8752-166.5536 111.7696h207.9744v71.68zM935.424 649.984h-99.9424v-99.9936h-71.68v99.9936h-99.9936v71.68h99.9936v99.9936h71.68v-99.9936h99.9424z" fill="#F7C425" p-id="22757"></path></svg>