<?xml version="1.0" standalone="no"?><!DOCTYPE svg PUBLIC "-//W3C//DTD SVG 1.1//EN" "http://www.w3.org/Graphics/SVG/1.1/DTD/svg11.dtd"><svg t="1747559280281" class="icon" viewBox="0 0 1024 1024" version="1.1" xmlns="http://www.w3.org/2000/svg" p-id="1512" xmlns:xlink="http://www.w3.org/1999/xlink" width="200" height="200"><path d="M959.361841 445.166849C945.035554 348.767312 900.93515 261.283842 831.825143 192.174857S675.232688 78.963423 578.833151 64.639183c-46.37419-6.890944-93.349061-6.578836-139.621944 0.928139-46.87254 7.605212-91.967598 22.429849-134.035716 44.065612-10.051937 5.169743-14.010085 17.508769-8.840342 27.560706 5.169743 10.050913 17.507746 14.010085 27.560706 8.840342 159.536506-82.048691 352.025519-51.874461 478.985072 75.085092 97.435123 97.435123 137.857764 233.466286 114.305349 363.578646-19.110243-32.767288-43.977607-56.613392-86.173638-88.125083-8.604982-6.426363-29.939893-15.565511-33.278941 5.265934-1.428535 8.912997 37.864376 56.437383 55.593156 105.641015 20.941961 58.125839 14.232143 73.696466 22.733771 105.740276 0.211824 1.131777 0.520863 2.241041 0.918929 3.320629 0 0 0 0 0 0 5.590322 19.382443 25.494651 16.813944 32.499182 8.475022 0.01228-0.014326 0.025583-0.032746 0.037862-0.047072 1.941212-1.670036 3.608178-3.725858 4.851495-6.14393 21.635763-42.067095 36.4604-87.163175 44.065612-134.035716C965.940676 538.516934 966.251761 491.541039 959.361841 445.166849z" p-id="1513"></path><path d="M700.103122 877.968066c-159.536506 82.047668-352.026542 51.873438-478.985072-75.085092C123.725906 705.490829 83.295078 569.538461 106.779955 439.480336c19.360953 34.474163 44.457538 58.845223 88.044242 91.39557 8.604982 6.426363 29.939893 15.565511 33.278941-5.265934 1.428535-8.912997-37.864376-56.437383-55.593156-105.641015-21.653159-60.09775-13.744026-74.702376-23.652699-109.060905-1.339508-4.64581-3.50687-8.018627-6.116301-10.365068-1.559519-1.661849-3.405563-3.104711-5.548366-4.206812-10.050913-5.169743-22.390963-1.211595-27.559683 8.839319-21.63474 42.067095-36.461423 87.163175-44.065612 134.035716-7.506974 46.27186-7.819083 93.246731-0.927115 139.620921 14.325263 96.399537 58.425667 183.884031 127.535675 252.993015 69.108984 69.108984 156.592454 113.210411 252.993015 127.535675 46.373167 6.890944 93.349061 6.579859 139.620921-0.928139 46.87254-7.605212 91.968621-22.430872 134.035716-44.065612 10.051937-5.16872 14.010085-17.508769 8.840342-27.559683C722.495108 876.751355 710.154036 872.798323 700.103122 877.968066z" p-id="1514"></path></svg>