<?xml version="1.0" standalone="no"?><!DOCTYPE svg PUBLIC "-//W3C//DTD SVG 1.1//EN" "http://www.w3.org/Graphics/SVG/1.1/DTD/svg11.dtd"><svg t="1746541353949" class="icon" viewBox="0 0 1024 1024" version="1.1" xmlns="http://www.w3.org/2000/svg" p-id="16883" xmlns:xlink="http://www.w3.org/1999/xlink" width="200" height="200"><path d="M530.112 69.248c13.888-7.04 34.752-7.04 55.68 0l410.368 257.472c13.952 6.976 27.84 27.84 27.84 48.704s-6.976 34.816-27.84 48.704L871.04 500.672v306.24c0 6.976 0 13.888-6.976 20.864-13.888 27.84-76.544 132.224-326.976 132.224-243.456 0-306.048-97.408-326.912-125.248-7.04-6.976-7.04-13.952-7.04-20.864V486.784L84.928 417.152C77.888 410.24 64 389.312 64 375.424c0-20.864 6.976-34.816 27.84-48.704l438.272-257.472zM286.592 535.488v257.472c13.952 20.928 69.568 76.544 250.432 76.544 187.84 0 243.52-62.592 250.432-76.544V542.464l-208.64 132.224a59.392 59.392 0 0 1-48.704 0L286.592 535.488z m695.68-20.864c20.864 0 41.728 20.864 41.728 41.728v236.608c0 13.952-6.976 20.928-13.888 27.84-7.04 6.976-13.952 13.952-27.84 13.952-6.976 0-20.864-6.976-27.84-13.952-6.976-6.912-13.888-20.864-13.888-27.84V556.352c0-20.864 20.864-41.728 41.728-41.728z m-431.36-368.832L168.32 375.424l382.656 222.72 368.64-222.72-368.64-229.632z" fill="#8F959E" p-id="16884"></path></svg>