<?xml version="1.0" standalone="no"?><!DOCTYPE svg PUBLIC "-//W3C//DTD SVG 1.1//EN" "http://www.w3.org/Graphics/SVG/1.1/DTD/svg11.dtd"><svg t="1746262552336" class="icon" viewBox="0 0 1024 1024" version="1.1" xmlns="http://www.w3.org/2000/svg" p-id="15309" xmlns:xlink="http://www.w3.org/1999/xlink" width="200" height="200"><path d="M203.744 788.8l241.536-241.504a21.952 21.952 0 0 1 30.784 0.128c8.32 8.288 8.608 22.336 0.128 30.784l-241.6 241.632h279.488c11.776 0 21.824 9.792 21.824 21.888a22.08 22.08 0 0 1-21.824 21.856H183.52a22.08 22.08 0 0 1-23.52-21.76V509.984c0-11.776 9.792-21.824 21.856-21.824a22.08 22.08 0 0 1 21.888 21.824v278.848zM820.224 234.88l-241.504 241.504a21.952 21.952 0 0 1-30.816-0.128 22.016 22.016 0 0 1-0.128-30.784l241.6-241.632h-279.488a22.016 22.016 0 0 1-21.824-21.888 22.08 22.08 0 0 1 21.824-21.856h330.56a22.08 22.08 0 0 1 23.52 21.76v331.872a22.016 22.016 0 0 1-21.856 21.824 22.08 22.08 0 0 1-21.888-21.824V234.88z" fill="#454545" p-id="15310"></path></svg>