<?xml version="1.0" standalone="no"?><!DOCTYPE svg PUBLIC "-//W3C//DTD SVG 1.1//EN" "http://www.w3.org/Graphics/SVG/1.1/DTD/svg11.dtd"><svg t="1746518746403" class="icon" viewBox="0 0 1024 1024" version="1.1" xmlns="http://www.w3.org/2000/svg" p-id="11977" xmlns:xlink="http://www.w3.org/1999/xlink" width="200" height="200"><path d="M512 1024c-159.061333 0-238.549333 0-301.269333-25.984a341.333333 341.333333 0 0 1-184.746667-184.746667C0 750.549333 0 671.018667 0 512c0-159.061333 0-238.549333 25.984-301.269333a341.333333 341.333333 0 0 1 184.746667-184.746667C273.450667 0 352.938667 0 512 0c159.018667 0 238.549333 0 301.269333 25.984a341.333333 341.333333 0 0 1 184.746667 184.746667C1024 273.450667 1024 352.938667 1024 512c0 159.018667 0 238.549333-25.984 301.269333a341.333333 341.333333 0 0 1-184.746667 184.746667C750.549333 1024 671.018667 1024 512 1024z" fill="#2c2c2c" p-id="11978" data-spm-anchor-id="a313x.search_index.0.i7.69aa3a81ONs9Dy" class="selected"></path><path d="M245.845333 485.546667a34.133333 34.133333 0 0 0 0 52.906666L475.434667 725.333333a34.133333 34.133333 0 0 0 55.68-26.453333v-85.76l301.866666-67.84c35.584-7.936 35.584-58.581333 0-66.56l-301.866666-67.84V325.12A34.133333 34.133333 0 0 0 475.434667 298.666667l-229.546667 186.88z" fill="#FFFFFF" p-id="11979"></path></svg>