<?xml version="1.0" standalone="no"?><!DOCTYPE svg PUBLIC "-//W3C//DTD SVG 1.1//EN" "http://www.w3.org/Graphics/SVG/1.1/DTD/svg11.dtd"><svg t="1746541173147" class="icon" viewBox="0 0 1024 1024" version="1.1" xmlns="http://www.w3.org/2000/svg" p-id="14989" xmlns:xlink="http://www.w3.org/1999/xlink" width="200" height="200"><path d="M195.584 196.2496l5.1712-1.2288 233.984-41.2672-203.4176 456.9088-64.6656-366.8992a42.0864 42.0864 0 0 1 28.9792-47.5136z" fill="#FCC4BF" p-id="14990"></path><path d="M328.0384 101.888l5.2224 0.7168 233.2672 45.2608-353.6896 353.6896 71.0656-365.7216a42.0864 42.0864 0 0 1 44.1344-33.9456z" fill="#DB635D" p-id="14991"></path><path d="M580.8128 133.632a51.2 51.2 0 0 1 72.3968 0l253.44 253.44a51.2 51.2 0 0 1 0 72.3456l-378.88 378.88a51.2 51.2 0 0 1-46.2336 14.0288l-211.2-42.24a51.2 51.2 0 0 1-40.1408-40.192l-42.24-211.2a51.2 51.2 0 0 1 14.0288-46.2336l378.88-378.88z m-235.3152 452.5056A76.8 76.8 0 1 0 454.144 694.784a76.8 76.8 0 0 0-108.544-108.6464z" fill="#C31418" p-id="14992"></path></svg>