<?xml version="1.0" standalone="no"?><!DOCTYPE svg PUBLIC "-//W3C//DTD SVG 1.1//EN" "http://www.w3.org/Graphics/SVG/1.1/DTD/svg11.dtd"><svg t="1746545321862" class="icon" viewBox="0 0 1024 1024" version="1.1" xmlns="http://www.w3.org/2000/svg" p-id="32369" xmlns:xlink="http://www.w3.org/1999/xlink" width="200" height="200"><path d="M263.349677 468.925935l42.033549-42.050064 31.545806 31.545806-42.050064 42.033549zM346.40929 550.482581l-35.030709-35.03071 42.033548-42.050065 35.03071 35.047226zM217.633032 421.409032l42.050065-42.050064 31.52929 31.545806-42.050064 42.033549z" fill="#FF5552" p-id="32370"></path><path d="M0 0v1024L1024 0H0z m343.535484 181.677419l16.516129-16.516129 16.516129 16.516129 61.109677-61.109677-16.516129-16.516129 16.516129-16.516129 16.516129 16.516129L508.696774 49.548387l14.864516 14.864516-52.851613 52.851613 16.516129 16.516129-16.516129 16.516129-16.516129-16.516129-61.109677 61.109678 16.516129 16.516129-16.516129 16.516129-16.516129-16.516129-52.851613 52.851613-14.864516-14.864517 52.851613-52.851613-18.167742-14.864516z m-54.503226 474.012904L267.56129 677.16129l-19.819355-13.212903c8.258065-6.606452 14.864516-13.212903 19.819355-18.167742 6.606452-6.606452 6.606452-13.212903 1.651613-18.167742l-56.154838-56.154838c-8.258065 16.516129-14.864516 28.077419-19.819355 37.987096l-21.470968-13.212903c8.258065-13.212903 16.516129-28.077419 23.122581-42.941935l-54.503226-54.503226L110.658065 528.516129l-16.51613-16.516129 29.729033-29.729032L82.580645 440.980645l16.516129-16.516129 42.941936 42.941936 23.12258-23.122581 16.516129 16.516129-23.12258 23.122581 47.896774 47.896774c4.954839-13.212903 8.258065-23.122581 11.56129-31.380645l16.516129 16.516129c-3.303226 9.909677-8.258065 21.470968-11.56129 31.380645l67.716129 67.716129c13.212903 11.56129 13.212903 26.425806-1.651613 39.63871z m84.232258-77.625807l-16.516129 16.516129-137.083871-137.083871c3.303226 13.212903 4.954839 28.077419 6.606452 42.941936l-23.122581-11.561291c-6.606452-42.941935-19.819355-84.232258-42.941935-123.870967l19.819354-13.212904c8.258065 14.864516 16.516129 31.380645 23.122581 49.548387l42.941936-42.941935c-16.516129-8.258065-33.032258-16.516129-49.548388-23.122581l11.561291-19.819354c19.819355 8.258065 36.335484 16.516129 51.2 24.774193l-3.303226 8.258065 44.593548-44.593549 16.516129 16.516129-42.941935 42.941936 31.380645 31.380645 36.335484-36.335484 16.516129 16.516129-36.335484 36.335484 31.380645 31.380645 36.335484-36.335484 14.864516 14.864516-36.335484 36.335484 34.683871 34.683871 42.941936-42.941935 16.516129 16.516129-100.748387 100.748387 11.56129 11.56129z m168.464516-166.812903l-82.580645-82.580645c-1.651613 18.167742-3.303226 36.335484-6.606452 57.806451l-24.774193-3.303225c9.909677-46.245161 9.909677-89.187097 1.651613-127.174194L371.612903 313.806452l-13.212903-16.516129 66.064516-66.064517c-3.303226-9.909677-6.606452-18.167742-9.909677-24.774193l19.819355-13.212903 4.954838 9.909677 4.954839 9.909678L556.593548 99.096774l14.864517 14.864516-122.219355 122.219355c4.954839 19.819355 8.258065 39.63871 9.909677 59.458065l99.096774 99.096774-16.516129 16.516129z m94.141936-95.793548l-28.07742 28.077419-21.470967-11.56129c13.212903-11.56129 21.470968-19.819355 26.425806-24.774194 4.954839-4.954839 6.606452-11.56129 0-16.516129L586.322581 264.258065l-64.412904 64.412903-16.516129-16.516129 64.412904-64.412904-14.864517-14.864516c3.303226-9.909677 6.606452-26.425806 9.909678-47.896774l-77.625807 77.625807-14.864516-14.864517 100.748387-100.748387 11.561291 11.561291c-3.303226 21.470968-4.954839 42.941935-9.909678 62.76129l9.909678 9.909677 51.2-51.2 16.516129 16.516129-51.2 51.2 31.380645 31.380646c16.516129 11.56129 16.516129 23.122581 3.303226 36.335484z" fill="#FF5552" p-id="32371"></path></svg>