<?xml version="1.0" standalone="no"?><!DOCTYPE svg PUBLIC "-//W3C//DTD SVG 1.1//EN" "http://www.w3.org/Graphics/SVG/1.1/DTD/svg11.dtd"><svg t="1746542747075" class="icon" viewBox="0 0 1024 1024" version="1.1" xmlns="http://www.w3.org/2000/svg" p-id="31093" xmlns:xlink="http://www.w3.org/1999/xlink" width="200" height="200"><path d="M0 536.448v-51.2c0-7.04 5.76-12.8 12.8-12.8h85.184A416.128 416.128 0 0 1 473.6 97.728V12.8c0-7.04 5.76-12.8 12.8-12.8h51.2c7.04 0 12.8 5.76 12.8 12.8v84.928a416.128 416.128 0 0 1 375.872 374.72H1011.2c7.04 0 12.8 5.76 12.8 12.8v51.2a12.8 12.8 0 0 1-12.8 12.8h-84.672a416.128 416.128 0 0 1-376.064 376.96l0.064 84.928a12.8 12.8 0 0 1-12.8 12.8h-51.2a12.8 12.8 0 0 1-12.8-12.736l-0.064-84.992a416.128 416.128 0 0 1-375.872-376.96H12.8a12.8 12.8 0 0 1-12.8-12.8z m512.128 314.688a339.2 339.2 0 1 0 0-678.4 339.2 339.2 0 0 0 0 678.4zM512 704a192 192 0 1 1 0-384 192 192 0 0 1 0 384z m0-76.8a115.2 115.2 0 1 0 0-230.4 115.2 115.2 0 0 0 0 230.4z" fill="#6C798F" p-id="31094"></path></svg>